<svg width="210" height="211" xmlns="http://www.w3.org/2000/svg" xmlns:xlink="http://www.w3.org/1999/xlink" xml:space="preserve" overflow="hidden"><defs><clipPath id="clip0"><rect x="799" y="307" width="210" height="211"/></clipPath></defs><g clip-path="url(#clip0)" transform="translate(-799 -307)"><path d="M150.316 142.96 198.984 111.976 185.64 107.459C183.351 106.685 182.122 104.202 182.896 101.913 182.931 101.808 182.971 101.703 183.015 101.601L194.09 75.6022 166.143 81.6178C163.781 82.126 161.454 80.6232 160.946 78.2609 160.916 78.1255 160.894 77.9885 160.878 77.8509L159.254 64.0522 138.591 86.9772C137.378 88.3229 135.303 88.4301 133.957 87.2165 133.11 86.4531 132.721 85.3048 132.928 84.1838L142.553 32.2262 125.781 43.4153C123.771 44.756 121.055 44.2133 119.714 42.2032 119.572 41.9899 119.448 41.7646 119.346 41.5297L105 8.75 90.6588 41.5297C89.6901 43.7432 87.1102 44.7523 84.8967 43.7837 84.6617 43.6809 84.4364 43.5575 84.2231 43.4153L67.4384 32.2262 77.0634 84.1838C77.3927 85.9657 76.2149 87.6772 74.4328 88.0064 73.3117 88.2136 72.1634 87.8237 71.4 86.9772L50.7369 64.0522 49.1138 77.8509C48.832 80.2506 46.6581 81.9676 44.2584 81.6858 44.1208 81.6697 43.9838 81.6469 43.8484 81.6178L15.8988 75.6022 26.9741 101.601C27.9204 103.824 26.885 106.393 24.6619 107.34 24.5591 107.383 24.4547 107.423 24.3491 107.459L11.0053 111.976 59.6838 142.96C61.4585 144.089 62.1779 146.322 61.3966 148.275L53.3531 168.385 97.8053 158.156C98.9826 157.885 100.157 158.62 100.428 159.798 100.473 159.994 100.49 160.195 100.481 160.396L98.4375 201.25 111.562 201.25 109.519 160.39C109.463 159.183 110.396 158.159 111.603 158.103 111.802 158.094 112.001 158.112 112.195 158.156L156.647 168.385 148.603 148.275C147.822 146.322 148.542 144.089 150.316 142.96Z" fill="#E6E6E6" fill-opacity="0.75" transform="matrix(1 0 0 1.00476 799 307)"/></g></svg>